<?xml version="1.0" encoding="UTF-8" standalone="no"?>
<!DOCTYPE svg PUBLIC "-//W3C//DTD SVG 1.1//EN"
 "http://www.w3.org/Graphics/SVG/1.1/DTD/svg11.dtd">
<!-- Generated by graphviz version 12.2.1 (20241206.2353)
 -->
<!-- Pages: 1 -->
<svg width="2482pt" height="116pt"
 viewBox="0.00 0.00 2481.98 116.00" xmlns="http://www.w3.org/2000/svg" xmlns:xlink="http://www.w3.org/1999/xlink">
<g id="graph0" class="graph" transform="scale(1 1) rotate(0) translate(4 112)">
<polygon fill="white" stroke="none" points="-4,4 -4,-112 2477.98,-112 2477.98,4 -4,4"/>
<!-- SleepEventType -->
<g id="node1" class="node">
<title>SleepEventType</title>
<ellipse fill="none" stroke="black" cx="71.82" cy="-90" rx="71.82" ry="18"/>
<text text-anchor="middle" x="71.82" y="-84.95" font-family="Times,serif" font-size="14.00">SleepEventType</text>
</g>
<!-- String -->
<g id="node2" class="node">
<title>String</title>
<ellipse fill="none" stroke="black" cx="71.82" cy="-18" rx="33.44" ry="18"/>
<text text-anchor="middle" x="71.82" y="-12.95" font-family="Times,serif" font-size="14.00">String</text>
</g>
<!-- SleepEventType&#45;&gt;String -->
<g id="edge1" class="edge">
<title>SleepEventType&#45;&gt;String</title>
<path fill="none" stroke="black" d="M71.82,-71.7C71.82,-64.41 71.82,-55.73 71.82,-47.54"/>
<polygon fill="black" stroke="black" points="75.32,-47.62 71.82,-37.62 68.32,-47.62 75.32,-47.62"/>
</g>
<!-- DayHour -->
<g id="node3" class="node">
<title>DayHour</title>
<ellipse fill="none" stroke="black" cx="206.82" cy="-90" rx="45.21" ry="18"/>
<text text-anchor="middle" x="206.82" y="-84.95" font-family="Times,serif" font-size="14.00">DayHour</text>
</g>
<!-- Hashable -->
<g id="node4" class="node">
<title>Hashable</title>
<ellipse fill="none" stroke="black" cx="206.82" cy="-18" rx="45.21" ry="18"/>
<text text-anchor="middle" x="206.82" y="-12.95" font-family="Times,serif" font-size="14.00">Hashable</text>
</g>
<!-- DayHour&#45;&gt;Hashable -->
<g id="edge2" class="edge">
<title>DayHour&#45;&gt;Hashable</title>
<path fill="none" stroke="black" d="M206.82,-71.7C206.82,-64.41 206.82,-55.73 206.82,-47.54"/>
<polygon fill="black" stroke="black" points="210.32,-47.62 206.82,-37.62 203.32,-47.62 210.32,-47.62"/>
</g>
<!-- SleepEvent -->
<g id="node5" class="node">
<title>SleepEvent</title>
<ellipse fill="none" stroke="black" cx="322.82" cy="-90" rx="52.89" ry="18"/>
<text text-anchor="middle" x="322.82" y="-84.95" font-family="Times,serif" font-size="14.00">SleepEvent</text>
</g>
<!-- Identifiable -->
<g id="node6" class="node">
<title>Identifiable</title>
<ellipse fill="none" stroke="black" cx="476.82" cy="-18" rx="53.4" ry="18"/>
<text text-anchor="middle" x="476.82" y="-12.95" font-family="Times,serif" font-size="14.00">Identifiable</text>
</g>
<!-- SleepEvent&#45;&gt;Identifiable -->
<g id="edge3" class="edge">
<title>SleepEvent&#45;&gt;Identifiable</title>
<path fill="none" stroke="black" d="M353.62,-75C377.15,-64.31 409.81,-49.46 435.6,-37.74"/>
<polygon fill="black" stroke="black" points="436.79,-41.04 444.44,-33.72 433.89,-34.67 436.79,-41.04"/>
</g>
<!-- SleepHeatMapData -->
<g id="node7" class="node">
<title>SleepHeatMapData</title>
<ellipse fill="none" stroke="black" cx="476.82" cy="-90" rx="83.6" ry="18"/>
<text text-anchor="middle" x="476.82" y="-84.95" font-family="Times,serif" font-size="14.00">SleepHeatMapData</text>
</g>
<!-- SleepHeatMapData&#45;&gt;Identifiable -->
<g id="edge4" class="edge">
<title>SleepHeatMapData&#45;&gt;Identifiable</title>
<path fill="none" stroke="black" d="M476.82,-71.7C476.82,-64.41 476.82,-55.73 476.82,-47.54"/>
<polygon fill="black" stroke="black" points="480.32,-47.62 476.82,-37.62 473.32,-47.62 480.32,-47.62"/>
</g>
<!-- Statistics -->
<g id="node8" class="node">
<title>Statistics</title>
<ellipse fill="none" stroke="black" cx="694.82" cy="-90" rx="44.19" ry="18"/>
<text text-anchor="middle" x="694.82" y="-84.95" font-family="Times,serif" font-size="14.00">Statistics</text>
</g>
<!-- View -->
<g id="node9" class="node">
<title>View</title>
<ellipse fill="none" stroke="black" cx="1225.82" cy="-18" rx="30.88" ry="18"/>
<text text-anchor="middle" x="1225.82" y="-12.95" font-family="Times,serif" font-size="14.00">View</text>
</g>
<!-- Statistics&#45;&gt;View -->
<g id="edge5" class="edge">
<title>Statistics&#45;&gt;View</title>
<path fill="none" stroke="black" d="M727.34,-77.44C734.05,-75.38 741.11,-73.43 747.82,-72 906.36,-38.14 1099.38,-25.15 1183.37,-20.86"/>
<polygon fill="black" stroke="black" points="1183.4,-24.36 1193.21,-20.37 1183.05,-17.37 1183.4,-24.36"/>
</g>
<!-- SleepyBellApp -->
<g id="node10" class="node">
<title>SleepyBellApp</title>
<ellipse fill="none" stroke="black" cx="2216.82" cy="-90" rx="67.22" ry="18"/>
<text text-anchor="middle" x="2216.82" y="-84.95" font-family="Times,serif" font-size="14.00">SleepyBellApp</text>
</g>
<!-- App -->
<g id="node11" class="node">
<title>App</title>
<ellipse fill="none" stroke="black" cx="2216.82" cy="-18" rx="27" ry="18"/>
<text text-anchor="middle" x="2216.82" y="-12.95" font-family="Times,serif" font-size="14.00">App</text>
</g>
<!-- SleepyBellApp&#45;&gt;App -->
<g id="edge6" class="edge">
<title>SleepyBellApp&#45;&gt;App</title>
<path fill="none" stroke="black" d="M2216.82,-71.7C2216.82,-64.41 2216.82,-55.73 2216.82,-47.54"/>
<polygon fill="black" stroke="black" points="2220.32,-47.62 2216.82,-37.62 2213.32,-47.62 2220.32,-47.62"/>
</g>
<!-- Notifications -->
<g id="node12" class="node">
<title>Notifications</title>
<ellipse fill="none" stroke="black" cx="815.82" cy="-90" rx="59.03" ry="18"/>
<text text-anchor="middle" x="815.82" y="-84.95" font-family="Times,serif" font-size="14.00">Notifications</text>
</g>
<!-- Notifications&#45;&gt;View -->
<g id="edge7" class="edge">
<title>Notifications&#45;&gt;View</title>
<path fill="none" stroke="black" d="M859.22,-77.52C867.37,-75.55 875.83,-73.61 883.82,-72 991.66,-50.21 1120.2,-32.48 1184.66,-24.14"/>
<polygon fill="black" stroke="black" points="1184.95,-27.64 1194.43,-22.89 1184.06,-20.69 1184.95,-27.64"/>
</g>
<!-- Settings -->
<g id="node13" class="node">
<title>Settings</title>
<ellipse fill="none" stroke="black" cx="933.82" cy="-90" rx="40.6" ry="18"/>
<text text-anchor="middle" x="933.82" y="-84.95" font-family="Times,serif" font-size="14.00">Settings</text>
</g>
<!-- Settings&#45;&gt;View -->
<g id="edge8" class="edge">
<title>Settings&#45;&gt;View</title>
<path fill="none" stroke="black" d="M964.49,-77.73C970.53,-75.69 976.84,-73.68 982.82,-72 1053.09,-52.22 1136.53,-35.45 1185.09,-26.34"/>
<polygon fill="black" stroke="black" points="1185.69,-29.79 1194.88,-24.53 1184.41,-22.91 1185.69,-29.79"/>
</g>
<!-- HandView -->
<g id="node14" class="node">
<title>HandView</title>
<ellipse fill="none" stroke="black" cx="1042.82" cy="-90" rx="50.84" ry="18"/>
<text text-anchor="middle" x="1042.82" y="-84.95" font-family="Times,serif" font-size="14.00">HandView</text>
</g>
<!-- HandView&#45;&gt;View -->
<g id="edge9" class="edge">
<title>HandView&#45;&gt;View</title>
<path fill="none" stroke="black" d="M1076.39,-76.16C1108.56,-63.86 1156.96,-45.34 1189.89,-32.74"/>
<polygon fill="black" stroke="black" points="1190.92,-36.1 1199.01,-29.26 1188.42,-29.56 1190.92,-36.1"/>
</g>
<!-- DraggableTransparentForm -->
<g id="node15" class="node">
<title>DraggableTransparentForm</title>
<ellipse fill="none" stroke="black" cx="1225.82" cy="-90" rx="113.79" ry="18"/>
<text text-anchor="middle" x="1225.82" y="-84.95" font-family="Times,serif" font-size="14.00">DraggableTransparentForm</text>
</g>
<!-- DraggableTransparentForm&#45;&gt;View -->
<g id="edge10" class="edge">
<title>DraggableTransparentForm&#45;&gt;View</title>
<path fill="none" stroke="black" d="M1225.82,-71.7C1225.82,-64.41 1225.82,-55.73 1225.82,-47.54"/>
<polygon fill="black" stroke="black" points="1229.32,-47.62 1225.82,-37.62 1222.32,-47.62 1229.32,-47.62"/>
</g>
<!-- GlobalFontModifier -->
<g id="node16" class="node">
<title>GlobalFontModifier</title>
<ellipse fill="none" stroke="black" cx="2387.82" cy="-90" rx="86.15" ry="18"/>
<text text-anchor="middle" x="2387.82" y="-84.95" font-family="Times,serif" font-size="14.00">GlobalFontModifier</text>
</g>
<!-- ViewModifier -->
<g id="node17" class="node">
<title>ViewModifier</title>
<ellipse fill="none" stroke="black" cx="2387.82" cy="-18" rx="64.15" ry="18"/>
<text text-anchor="middle" x="2387.82" y="-12.95" font-family="Times,serif" font-size="14.00">ViewModifier</text>
</g>
<!-- GlobalFontModifier&#45;&gt;ViewModifier -->
<g id="edge11" class="edge">
<title>GlobalFontModifier&#45;&gt;ViewModifier</title>
<path fill="none" stroke="black" d="M2387.82,-71.7C2387.82,-64.41 2387.82,-55.73 2387.82,-47.54"/>
<polygon fill="black" stroke="black" points="2391.32,-47.62 2387.82,-37.62 2384.32,-47.62 2391.32,-47.62"/>
</g>
<!-- ContentView -->
<g id="node18" class="node">
<title>ContentView</title>
<ellipse fill="none" stroke="black" cx="1417.82" cy="-90" rx="60.05" ry="18"/>
<text text-anchor="middle" x="1417.82" y="-84.95" font-family="Times,serif" font-size="14.00">ContentView</text>
</g>
<!-- ContentView&#45;&gt;View -->
<g id="edge12" class="edge">
<title>ContentView&#45;&gt;View</title>
<path fill="none" stroke="black" d="M1380.8,-75.5C1346.59,-63.03 1296.04,-44.6 1262.07,-32.22"/>
<polygon fill="black" stroke="black" points="1263.68,-29.08 1253.09,-28.94 1261.29,-35.65 1263.68,-29.08"/>
</g>
<!-- DayNightToggleView -->
<g id="node19" class="node">
<title>DayNightToggleView</title>
<ellipse fill="none" stroke="black" cx="1588.82" cy="-90" rx="93.32" ry="18"/>
<text text-anchor="middle" x="1588.82" y="-84.95" font-family="Times,serif" font-size="14.00">DayNightToggleView</text>
</g>
<!-- DayNightToggleView&#45;&gt;View -->
<g id="edge13" class="edge">
<title>DayNightToggleView&#45;&gt;View</title>
<path fill="none" stroke="black" d="M1524.34,-76.57C1449.54,-62.14 1328.52,-38.8 1266.02,-26.75"/>
<polygon fill="black" stroke="black" points="1267.03,-23.38 1256.55,-24.92 1265.7,-30.25 1267.03,-23.38"/>
</g>
<!-- DaylightBackgroundView -->
<g id="node20" class="node">
<title>DaylightBackgroundView</title>
<ellipse fill="none" stroke="black" cx="1807.82" cy="-90" rx="108.16" ry="18"/>
<text text-anchor="middle" x="1807.82" y="-84.95" font-family="Times,serif" font-size="14.00">DaylightBackgroundView</text>
</g>
<!-- DaylightBackgroundView&#45;&gt;View -->
<g id="edge14" class="edge">
<title>DaylightBackgroundView&#45;&gt;View</title>
<path fill="none" stroke="black" d="M1729.2,-77.24C1716.38,-75.42 1703.24,-73.61 1690.82,-72 1534.92,-51.79 1349.06,-31.86 1267.58,-23.32"/>
<polygon fill="black" stroke="black" points="1268.15,-19.86 1257.84,-22.31 1267.42,-26.83 1268.15,-19.86"/>
</g>
<!-- StarryBackgroundView -->
<g id="node21" class="node">
<title>StarryBackgroundView</title>
<ellipse fill="none" stroke="black" cx="2032.82" cy="-90" rx="98.44" ry="18"/>
<text text-anchor="middle" x="2032.82" y="-84.95" font-family="Times,serif" font-size="14.00">StarryBackgroundView</text>
</g>
<!-- StarryBackgroundView&#45;&gt;View -->
<g id="edge15" class="edge">
<title>StarryBackgroundView&#45;&gt;View</title>
<path fill="none" stroke="black" d="M1962.35,-77.07C1949.87,-75.2 1936.98,-73.42 1924.82,-72 1676.93,-43.14 1377.67,-26.51 1268.39,-21.03"/>
<polygon fill="black" stroke="black" points="1268.59,-17.54 1258.43,-20.54 1268.24,-24.53 1268.59,-17.54"/>
</g>
<!-- Star -->
<g id="node22" class="node">
<title>Star</title>
<ellipse fill="none" stroke="black" cx="605.82" cy="-90" rx="27" ry="18"/>
<text text-anchor="middle" x="605.82" y="-84.95" font-family="Times,serif" font-size="14.00">Star</text>
</g>
<!-- Star&#45;&gt;Identifiable -->
<g id="edge16" class="edge">
<title>Star&#45;&gt;Identifiable</title>
<path fill="none" stroke="black" d="M585.38,-77.91C566.2,-67.5 537.05,-51.68 513.79,-39.06"/>
<polygon fill="black" stroke="black" points="515.69,-36.11 505.23,-34.41 512.35,-42.26 515.69,-36.11"/>
</g>
</g>
</svg>
